<svg width="40" height="40" viewBox="0 0 40 40" fill="none" xmlns="http://www.w3.org/2000/svg">
<g opacity="0.3">
<circle cx="20" cy="20" r="19.5" transform="matrix(-1 0 0 1 40 0)" stroke="#555555"/>
<path fill-rule="evenodd" clip-rule="evenodd" d="M26.4286 20C26.4286 19.5491 26.0488 19.1837 25.5804 19.1837H15.7531L19.3944 15.6793C19.7257 15.3605 19.7257 14.8436 19.3944 14.5248C19.0632 14.206 18.5261 14.206 18.1949 14.5248L13.1056 19.4228C12.7743 19.7416 12.7743 20.2584 13.1056 20.5772L18.1949 25.4752C18.5261 25.794 19.0632 25.794 19.3944 25.4752C19.7257 25.1564 19.7257 24.6395 19.3944 24.3207L15.7531 20.8163H25.5804C26.0488 20.8163 26.4286 20.4508 26.4286 20Z" fill="#555555"/>
</g>
</svg>
